<svg xmlns="http://www.w3.org/2000/svg" viewBox="0 0 32 32" fill="none">
  <defs>
    <linearGradient id="gradient" x1="0%" y1="0%" x2="100%" y2="100%">
      <stop offset="0%" style="stop-color:#3B82F6;stop-opacity:1" />
      <stop offset="100%" style="stop-color:#6366F1;stop-opacity:1" />
    </linearGradient>
  </defs>
  <rect width="32" height="32" rx="6" fill="url(#gradient)"/>
  <path d="M24 15c0 4-2.8 6-6.13 7.16a.8.8 0 0 1-.54-.01C13.8 21 11 19 11 15V10a.8.8 0 0 1 .8-.8c1.6 0 3.6-.96 4.99-2.18a.94.94 0 0 1 1.22 0C19.41 8.24 21.4 9.2 23 9.2a.8.8 0 0 1 .8.8z" fill="white" stroke="white" stroke-width="0.5"/>
</svg>